<svg width="17" height="17" viewBox="0 0 17 17" fill="none" xmlns="http://www.w3.org/2000/svg">
    <path d="M13.8125 1.0625H4.25C3.96821 1.0625 3.69796 1.17444 3.4987 1.3737C3.29944 1.57296 3.1875 1.84321 3.1875 2.125V4.25H2.125V5.3125H3.1875V7.96875H2.125V9.03125H3.1875V11.6875H2.125V12.75H3.1875V14.875C3.1875 15.1568 3.29944 15.427 3.4987 15.6263C3.69796 15.8256 3.96821 15.9375 4.25 15.9375H13.8125C14.0943 15.9375 14.3645 15.8256 14.5638 15.6263C14.7631 15.427 14.875 15.1568 14.875 14.875V2.125C14.875 1.84321 14.7631 1.57296 14.5638 1.3737C14.3645 1.17444 14.0943 1.0625 13.8125 1.0625ZM13.8125 14.875H4.25V12.75H5.3125V11.6875H4.25V9.03125H5.3125V7.96875H4.25V5.3125H5.3125V4.25H4.25V2.125H13.8125V14.875Z"/>
    <path d="M7.4375 4.25H11.6875V5.3125H7.4375V4.25ZM7.4375 7.96875H11.6875V9.03125H7.4375V7.96875ZM7.4375 11.6875H11.6875V12.75H7.4375V11.6875Z"/>
</svg>
