<svg width="11" height="12" viewBox="0 0 11 12" fill="none" xmlns="http://www.w3.org/2000/svg">
    <path d="M1.04211 2.30179C0.434211 2.64962 0 3.44757 0 4.16368V9.66752C0 10.977 0.964912 12 2.2 12H8.8C10.0351 12 11 10.977 11 9.66752V4.16368C11 3.44757 10.5658 2.64962 9.95789 2.30179L6.47456 0.245525C5.91491 -0.0818415 5.08509 -0.0818415 4.52544 0.245525L1.04211 2.30179ZM1.56316 3.32481L5.06579 1.26854C5.33597 1.10486 5.66404 1.10486 5.93421 1.26854L9.43684 3.32481C9.72632 3.48849 9.9 3.80563 9.9 4.16368V9.66752C9.9 10.4041 9.49474 10.8338 8.8 10.8338H2.2C1.50526 10.8338 1.1 10.4041 1.1 9.66752V4.16368C1.1 3.80563 1.27368 3.48849 1.56316 3.32481ZM11 4.60358C11 4.05115 10.4693 3.73402 10.0254 4.01023L5.93421 6.41432C5.66404 6.57801 5.33597 6.57801 5.06579 6.41432L0.974561 4.01023C0.530702 3.73402 0 4.05115 0 4.60358V9.66752C0 10.977 0.964912 12 2.2 12H8.8C10.0351 12 11 10.977 11 9.66752V4.60358ZM9.9 4.60358V9.66752C9.9 10.4041 9.49474 10.8338 8.8 10.8338H2.2C1.50526 10.8338 1.1 10.4041 1.1 9.66752V4.60358C1.1 4.71611 1.01316 4.91049 0.781579 5.22762L4.52544 7.43734C5.08509 7.76471 5.91491 7.76471 6.47456 7.43734L10.2184 5.22762C9.98684 4.91049 9.9 4.71611 9.9 4.60358Z"/>
</svg>
