<svg width="17" height="18" viewBox="0 0 17 18" fill="none" xmlns="http://www.w3.org/2000/svg">
    <path d="M2.125 9H8.5V10.125H2.125V9ZM1.0625 6.1875H6.375V7.3125H1.0625V6.1875Z"/>
    <path d="M15.8946 9.34088L14.3009 5.40337C14.26 5.30217 14.1919 5.21591 14.1051 5.15531C14.0183 5.09471 13.9166 5.06244 13.8126 5.0625H12.2189V3.9375C12.2189 3.78832 12.1629 3.64524 12.0633 3.53975C11.9637 3.43426 11.8285 3.375 11.6876 3.375H3.18765V4.5H11.1564V11.5627C10.9143 11.7116 10.7025 11.9097 10.5331 12.1456C10.3636 12.3816 10.24 12.6507 10.1693 12.9375H6.83096C6.70166 12.4073 6.39415 11.9451 5.96608 11.6378C5.53801 11.3304 5.01877 11.1989 4.50568 11.2679C3.99259 11.3369 3.52088 11.6017 3.17898 12.0126C2.83707 12.4235 2.64844 12.9524 2.64844 13.5C2.64844 14.0476 2.83707 14.5765 3.17898 14.9874C3.52088 15.3983 3.99259 15.6631 4.50568 15.7321C5.01877 15.8011 5.53801 15.6696 5.96608 15.3622C6.39415 15.0549 6.70166 14.5927 6.83096 14.0625H10.1693C10.2849 14.5453 10.5492 14.9734 10.9204 15.2793C11.2916 15.5851 11.7485 15.7512 12.2189 15.7512C12.6893 15.7512 13.1462 15.5851 13.5174 15.2793C13.8886 14.9734 14.1529 14.5453 14.2685 14.0625H15.4064C15.5473 14.0625 15.6824 14.0032 15.782 13.8977C15.8817 13.7923 15.9376 13.6492 15.9376 13.5V9.5625C15.9377 9.4863 15.923 9.41089 15.8946 9.34088ZM4.7814 14.625C4.57125 14.625 4.36583 14.559 4.1911 14.4354C4.01638 14.3118 3.88019 14.1361 3.79978 13.9305C3.71936 13.725 3.69832 13.4988 3.73931 13.2805C3.78031 13.0623 3.8815 12.8618 4.0301 12.7045C4.17869 12.5472 4.36801 12.44 4.57411 12.3966C4.78022 12.3532 4.99385 12.3755 5.188 12.4606C5.38214 12.5458 5.54808 12.69 5.66483 12.875C5.78158 13.06 5.8439 13.2775 5.8439 13.5C5.84362 13.7983 5.73158 14.0843 5.53239 14.2952C5.33319 14.5061 5.0631 14.6247 4.7814 14.625ZM12.2189 6.1875H13.462L14.601 9H12.2189V6.1875ZM12.2189 14.625C12.0088 14.625 11.8033 14.559 11.6286 14.4354C11.4539 14.3118 11.3177 14.1361 11.2373 13.9305C11.1569 13.725 11.1358 13.4988 11.1768 13.2805C11.2178 13.0623 11.319 12.8618 11.4676 12.7045C11.6162 12.5472 11.8055 12.44 12.0116 12.3966C12.2177 12.3532 12.4314 12.3755 12.6255 12.4606C12.8196 12.5458 12.9856 12.69 13.1023 12.875C13.2191 13.06 13.2814 13.2775 13.2814 13.5C13.2811 13.7983 13.1691 14.0843 12.9699 14.2952C12.7707 14.5061 12.5006 14.6247 12.2189 14.625ZM14.8751 12.9375H14.2685C14.1514 12.4557 13.8867 12.0286 13.5158 11.7232C13.1449 11.4178 12.6888 11.2514 12.2189 11.25V10.125H14.8751V12.9375Z"/>
</svg>
