<svg width="12" height="12" viewBox="0 0 12 12" fill="none" xmlns="http://www.w3.org/2000/svg">
    <path d="M6 1.2C8.72632 1.2 10.8 3.27368 10.8 6C10.8 8.72632 8.72632 10.8 6 10.8C5.04211 10.8 4.22105 10.5474 3.45263 10.0737L1.43158 10.5789C1.42105 10.5789 1.42105 10.5789 1.42105 10.5684L1.92632 8.54737C1.45263 7.77895 1.2 6.95789 1.2 6C1.2 3.27368 3.27368 1.2 6 1.2ZM6 0C2.68421 0 0 2.68421 0 6C0 6.96842 0.242105 7.90526 0.642105 8.71579L0.263158 10.2947C0.0526316 11.1684 0.831579 11.9474 1.70526 11.7368L3.28421 11.3579C4.09474 11.7579 5.03158 12 6 12C9.31579 12 12 9.31579 12 6C12 2.68421 9.31579 0 6 0ZM3.6 5.2C3.15789 5.2 2.8 5.55789 2.8 6C2.8 6.44211 3.15789 6.8 3.6 6.8C4.04211 6.8 4.4 6.44211 4.4 6C4.4 5.55789 4.04211 5.2 3.6 5.2ZM6 5.2C5.55789 5.2 5.2 5.55789 5.2 6C5.2 6.44211 5.55789 6.8 6 6.8C6.44211 6.8 6.8 6.44211 6.8 6C6.8 5.55789 6.44211 5.2 6 5.2ZM8.4 5.2C7.95789 5.2 7.6 5.55789 7.6 6C7.6 6.44211 7.95789 6.8 8.4 6.8C8.84211 6.8 9.2 6.44211 9.2 6C9.2 5.55789 8.84211 5.2 8.4 5.2Z"/>
</svg>
