<?xml version="1.0" encoding="utf-8"?>
<!-- Generator: Adobe Illustrator 18.1.1, SVG Export Plug-In . SVG Version: 6.00 Build 0)  -->
<svg version="1.1" id="Слой_1" xmlns="http://www.w3.org/2000/svg" xmlns:xlink="http://www.w3.org/1999/xlink" x="0px" y="0px"
	 viewBox="236.3 74.9 487.2 267.5" enable-background="new 236.3 74.9 487.2 267.5" xml:space="preserve">
<g id="XMLID_132_">
	<path id="XMLID_157_" fill="#040102" d="M492.7,212.3c-1.1-4-2.3-8.4-3.7-13c0,0,0,0.1,0,0.2c-5.2,2.7-10,5.2-14.4,7.3
		c-17.7,8.5-27.3,2.4-32.1-12.8c-4.1-12.9-7.8-30.3-10.3-47.6c-2.8-17.2-4.6-35-4.6-48.5c0-7.5,1.6-13.4,5.3-17.3
		c0.2,0-0.8-0.1-1.5-0.1c-5,0-9.3,3.2-13.3,9.9c-16.5,27.5-38.5,86.3-48,121.9c-2.3,8.5-2.1,15.1,0.6,19.4c2.5,4,7.2,6.6,14.3,7.8
		c12.2,2.1,29.1,3.2,46.3,3c1.4,0,2.7,0,4,0c16.1,0,31.1-1.1,42.4-3c7.2-1.2,11.9-3.8,14.3-7.8C494.7,227.3,494.9,220.8,492.7,212.3
		z"/>
	<path id="XMLID_139_" fill="#040102" d="M591.7,119.6c-0.8-5.3-4.2-10.4-13.3-14.4c-30.7-13.4-91.1-26.2-124.3-30
		c-6.3-0.7-11.2-0.3-15.1,1.2c3.9,2,7.3,5.6,10.4,10.8c16.1,26.9,34.5,76.1,44.6,109.5c30.2-16.3,69-40.8,89.3-59.2
		C590.8,130.9,592.5,124.9,591.7,119.6 M476.2,109c-5.4,0-9.9-4.6-9.9-10.3c0-5.7,4.4-10.3,9.9-10.3c5.5,0,9.9,4.6,9.9,10.3
		C486.1,104.4,481.6,109,476.2,109"/>
</g>
<g>
	<g>
		<g>
			<path fill="#040102" d="M714.9,325.8c-4.7,0-8.6,3.7-8.6,8.3c0,4.6,3.9,8.3,8.6,8.3s8.6-3.7,8.6-8.3S719.7,325.8,714.9,325.8z
				 M714.9,341.1c-4,0-7.2-3.1-7.2-6.9c0-3.8,3.2-6.9,7.2-6.9s7.2,3.1,7.2,6.9C722.1,337.9,718.9,341.1,714.9,341.1z"/>
			<path fill="#040102" d="M719.1,331.9c0-2-1.3-3-3.8-3h-3.4v10.4h1.6V335h1.6l2.6,4.3h1.8l-2.7-4.5
				C718.3,334.4,719.1,333.4,719.1,331.9z M715.1,333.7h-1.6v-3.4h1.6c1.6,0,2.4,0.5,2.4,1.6C717.4,333.1,716.7,333.7,715.1,333.7z"
				/>
		</g>
	</g>
	<g>
		<g>
			<rect x="601" y="283.1" fill="#040102" width="10.1" height="59.3"/>
			<polygon fill="#040102" points="415,293.2 435.5,293.2 435.5,342.4 445.7,342.4 445.7,293.2 466.1,293.2 466.1,283.1 415,283.1 
							"/>
			<polygon fill="#040102" points="327.2,342.4 372,342.4 372,332.3 337.3,332.3 337.3,317.8 369.9,317.8 369.9,307.7 337.3,307.7 
				337.3,293.2 372,293.2 372,283.1 327.2,283.1 			"/>
			<polygon fill="#040102" points="655.4,283.1 655.4,293.2 675.8,293.2 675.8,342.4 686.1,342.4 686.1,293.2 706.5,293.2 
				706.5,283.1 			"/>
			<polygon fill="#040102" points="550.6,283.1 519.3,306.1 519.3,283.1 509.2,283.1 509.2,342.4 519.3,342.4 519.3,319.4 
				550.6,342.4 556.7,334.6 526.9,312.8 556.7,290.9 			"/>
			<path fill="#040102" d="M262.5,283.1h-26.2v59.3h10.2v-17.9h16c5.7,0,11.1-2.2,15.1-6.1c4-3.9,6.3-9.1,6.3-14.6v0
				c0-5.5-2.2-10.7-6.3-14.6C273.6,285.3,268.2,283.1,262.5,283.1z M273.5,303.9c0,5.9-4.9,10.6-11,10.6h-16v-21.2h16
				C268.6,293.2,273.5,298,273.5,303.9z"/>
		</g>
	</g>
</g>
</svg>
