<?xml version="1.0" standalone="no"?>
<!DOCTYPE svg PUBLIC "-//W3C//DTD SVG 20010904//EN"
 "http://www.w3.org/TR/2001/REC-SVG-20010904/DTD/svg10.dtd">
<svg version="1.0" xmlns="http://www.w3.org/2000/svg"
 width="280.000000pt" height="80.000000pt" viewBox="0 0 280.000000 80.000000"
 preserveAspectRatio="xMidYMid meet">

<g transform="translate(0.000000,80.000000) scale(0.100000,-0.100000)"
fill="#000000" stroke="none">
<path d="M250 580 l0 -50 103 0 c124 0 147 -11 147 -69 0 -62 -19 -71 -143
-71 l-107 0 0 -111 0 -111 28 7 c43 11 62 34 62 77 l0 38 53 0 c78 0 121 16
160 59 61 68 59 167 -5 228 -43 40 -91 53 -205 53 l-93 0 0 -50z"/>
<path d="M710 580 l0 -50 140 0 c137 0 142 1 166 25 16 16 24 34 22 48 -3 22
-6 22 -165 25 l-163 2 0 -50z"/>
<path d="M1140 580 l0 -50 65 0 65 0 2 -177 3 -178 29 2 c56 4 61 18 64 193
l3 160 49 0 c41 0 52 4 70 27 11 15 20 36 18 47 -3 20 -10 21 -185 24 l-183 2
0 -50z"/>
<path d="M1715 552 l-130 -78 0 -74 0 -74 130 -78 c118 -71 131 -76 143 -61
13 18 15 42 6 67 -3 8 -48 40 -100 72 -60 36 -94 63 -94 74 0 11 34 38 94 74
52 32 97 64 100 72 9 25 7 49 -6 67 -12 15 -25 10 -143 -61z"/>
<path d="M1990 400 c0 -136 4 -230 9 -230 19 0 66 21 73 33 4 7 8 105 8 220
l0 207 -45 0 -45 0 0 -230z"/>
<path d="M2190 580 l0 -50 65 0 65 0 2 -177 3 -178 30 2 c57 4 65 27 65 199
l0 154 50 0 c59 0 90 24 90 70 l0 30 -185 0 -185 0 0 -50z"/>
<path d="M710 400 l0 -50 140 0 c137 0 142 1 166 25 16 16 24 34 22 48 -3 22
-6 22 -165 25 l-163 2 0 -50z"/>
<path d="M710 219 l0 -50 146 3 c139 3 147 4 165 27 10 13 19 34 19 47 l0 24
-165 0 -165 0 0 -51z"/>
</g>
</svg>
