<?xml version="1.0" standalone="no"?>
<!DOCTYPE svg PUBLIC "-//W3C//DTD SVG 20010904//EN"
 "http://www.w3.org/TR/2001/REC-SVG-20010904/DTD/svg10.dtd">
<svg version="1.0" xmlns="http://www.w3.org/2000/svg"
 width="1171.000000pt" height="1171.000000pt" viewBox="0 0 1171.000000 1171.000000"
 preserveAspectRatio="xMidYMid meet">
<metadata>
Created by potrace 1.14, written by Peter Selinger 2001-2017
</metadata>
<g transform="translate(0.000000,1171.000000) scale(0.100000,-0.100000)"
fill="#000000" stroke="none">
<path d="M5097 9834 c-1 -1 -33 -4 -70 -8 -37 -3 -81 -12 -98 -19 l-30 -12 53
-39 c103 -75 195 -210 347 -511 81 -160 206 -422 206 -434 1 -3 6 -15 12 -26
11 -20 123 -288 170 -405 14 -36 31 -78 39 -95 12 -30 79 -206 136 -360 94
-253 233 -660 283 -830 15 -49 30 -93 34 -96 8 -9 210 103 640 356 9 6 64 39
121 75 58 36 112 69 122 75 92 56 146 90 285 183 388 257 626 432 850 624 122
105 176 168 220 255 29 59 36 85 39 145 6 144 -55 256 -187 344 -170 113 -703
294 -1309 444 -224 56 -620 144 -690 155 -25 4 -47 8 -51 10 -5 4 -90 20 -314
61 -44 7 -91 16 -105 19 -14 3 -86 14 -160 25 -74 12 -145 22 -156 25 -12 2
-48 7 -80 10 -33 4 -67 9 -77 11 -10 2 -53 6 -95 10 -114 9 -132 10 -135 8z
m753 -340 c72 -31 127 -107 137 -192 25 -217 -230 -347 -383 -195 -126 127
-79 337 88 394 57 19 99 17 158 -7z"/>
<path d="M4670 9700 c-83 -15 -179 -91 -246 -196 -140 -219 -360 -680 -548
-1149 -29 -71 -56 -139 -61 -150 -4 -11 -16 -40 -25 -65 -9 -25 -45 -119 -80
-210 -153 -403 -395 -1143 -425 -1301 -2 -12 -6 -28 -9 -37 -26 -88 -32 -262
-12 -334 29 -97 97 -170 206 -219 49 -23 252 -63 365 -74 39 -3 88 -8 110 -11
174 -20 387 -27 765 -27 297 0 590 7 676 17 16 2 61 7 99 10 39 4 87 9 108 11
20 3 56 7 80 10 96 12 126 17 202 37 269 71 355 243 284 568 -9 39 -82 301
-94 338 -3 9 -49 -10 -147 -61 -263 -137 -362 -173 -495 -183 -194 -16 -337
95 -426 331 -42 112 -125 417 -153 565 -3 13 -12 56 -20 95 -9 38 -17 79 -19
90 -6 36 -46 269 -51 295 -2 14 -9 57 -15 97 -5 39 -12 82 -14 94 -3 13 -7 41
-10 64 -4 22 -8 51 -10 65 -20 143 -42 322 -50 425 -4 39 -8 90 -11 115 -2 25
-6 149 -9 275 -3 173 -1 244 9 285 22 90 46 145 84 196 l23 32 -23 4 c-13 2
-39 1 -58 -2z"/>
<path d="M7965 4112 c-110 -67 -678 -408 -712 -427 -10 -6 -129 -77 -265 -159
-237 -142 -248 -150 -249 -180 -1 -39 -1 -647 0 -663 1 -9 61 -50 106 -73 6
-3 181 -108 390 -233 209 -126 389 -234 400 -240 11 -7 50 -31 88 -54 37 -24
70 -43 72 -43 3 0 41 -22 85 -50 44 -27 82 -50 85 -50 2 0 29 -15 58 -34 29
-19 58 -31 63 -28 24 16 94 128 110 174 35 105 3 236 -76 315 -22 21 -182 126
-357 232 -470 286 -539 330 -559 352 -14 15 -19 36 -19 75 0 47 4 57 30 82 17
16 176 118 355 227 179 109 369 225 422 257 53 33 111 74 128 91 82 83 112
220 71 327 -19 49 -98 170 -111 170 -3 0 -54 -31 -115 -68z"/>
<path d="M6 4150 c-6 -10 -3 -460 3 -461 3 -1 226 -2 496 -3 270 -1 506 -6
525 -10 157 -37 272 -197 264 -371 -6 -143 -92 -268 -220 -320 -54 -22 -62
-22 -562 -22 l-507 0 0 -534 0 -534 95 1 c166 1 261 53 322 174 l33 65 1 173
c1 95 3 175 5 177 2 2 144 5 314 8 171 2 320 7 333 10 12 4 32 9 43 12 47 10
97 29 162 61 221 110 380 316 432 559 22 104 14 336 -14 433 -81 276 -298 488
-578 563 -74 20 -103 22 -611 23 -294 1 -535 -1 -536 -4z"/>
<path d="M2330 3920 l0 -235 708 0 707 1 57 27 c71 35 123 87 156 157 22 48
25 68 26 169 l1 116 -827 0 -828 0 0 -235z"/>
<path d="M4503 4146 c-8 -12 -8 -440 0 -452 3 -6 143 -9 341 -9 330 0 336 0
337 -20 0 -11 1 -414 2 -895 l2 -875 111 1 c120 2 172 17 242 71 41 31 89 103
103 158 8 27 11 283 11 798 0 416 3 758 7 758 3 1 107 2 231 3 274 2 304 10
391 97 41 42 60 69 73 112 17 55 29 236 17 254 -8 12 -1861 11 -1868 -1z"/>
<path d="M8810 3024 l0 -1131 114 3 c99 1 122 5 170 27 73 34 139 103 167 175
l21 57 0 990 c0 545 -1 995 -1 1000 -1 6 -86 10 -236 10 l-235 0 0 -1131z"/>
<path d="M9829 4120 c0 -44 0 -411 1 -425 0 -7 115 -10 340 -10 l340 0 0 -70
c1 -38 1 -440 1 -892 0 -621 3 -822 12 -826 7 -2 58 -3 114 -2 83 2 111 7 155
27 102 47 167 129 185 233 5 28 9 382 8 788 0 486 3 737 10 738 5 1 109 2 230
3 231 2 266 8 335 51 72 46 123 122 138 205 4 25 8 83 7 130 l0 85 -938 0
-937 0 -1 -35z"/>
<path d="M2347 3262 c-15 -3 -17 -26 -17 -238 l0 -235 713 3 712 3 49 23 c75
36 138 107 163 183 21 64 32 258 15 260 -33 2 -1622 3 -1635 1z"/>
<path d="M2330 2131 l0 -236 698 0 c744 1 733 0 813 51 101 63 150 174 146
329 l-2 90 -827 1 -828 1 0 -236z"/>
</g>
</svg>
